# xmcd
#
# Track frame offsets: 
#        183
#        20075
#        42685
#        62963
#        81730
#        99900
#        132180
#        150968
#
# Disc length: 2276 seconds
#
# Revision: 3
# Processed by: cddbd v1.5.2PL0 Copyright (c) Steve Scherf et al.
# Submitted via: ExactAudioCopy v0.99pb3
#
DISCID=6908e208
DTITLE=J. B. Hutto And The New Hawks - Live At Shaboo Inn, Conn. 1979
DYEAR=1991
DGENRE=Blues
TTITLE0=J.B.'s Stomp
TTITLE1=Shake Rattle and Roll
TTITLE2=Hip Shakin
TTITLE3=The 16 Years Old Boy
TTITLE4=Tell Me Why
TTITLE5=I Don't Know Why
TTITLE6=Too Much Alcohol
TTITLE7=Linda Lu
EXTD=
EXTT0=
EXTT1=
EXTT2=
EXTT3=
EXTT4=
EXTT5=
EXTT6=
EXTT7=
PLAYORDER=
